<mxfile host="app.diagrams.net" agent="Mozilla/5.0 (Windows NT 10.0; Win64; x64) AppleWebKit/537.36 (KHTML, like Gecko) Chrome/127.0.0.0 Safari/537.36 OPR/113.0.0.0" version="24.7.17">
  <diagram id="C5RBs43oDa-KdzZeNtuy" name="Page-1">
    <mxGraphModel dx="1009" dy="507" grid="1" gridSize="10" guides="1" tooltips="1" connect="1" arrows="1" fold="1" page="1" pageScale="1" pageWidth="827" pageHeight="1169" math="0" shadow="0">
      <root>
        <mxCell id="WIyWlLk6GJQsqaUBKTNV-0" />
        <mxCell id="WIyWlLk6GJQsqaUBKTNV-1" parent="WIyWlLk6GJQsqaUBKTNV-0" />
        <mxCell id="Tip-lkdg16izol2r0epo-2" value="" style="group" parent="WIyWlLk6GJQsqaUBKTNV-1" vertex="1" connectable="0">
          <mxGeometry x="200" y="340" width="80" height="80" as="geometry" />
        </mxCell>
        <mxCell id="Tip-lkdg16izol2r0epo-0" value="" style="whiteSpace=wrap;html=1;aspect=fixed;" parent="Tip-lkdg16izol2r0epo-2" vertex="1">
          <mxGeometry width="80" height="80" as="geometry" />
        </mxCell>
        <mxCell id="Tip-lkdg16izol2r0epo-1" value="1" style="whiteSpace=wrap;html=1;aspect=fixed;" parent="Tip-lkdg16izol2r0epo-2" vertex="1">
          <mxGeometry x="15" y="15" width="50" height="50" as="geometry" />
        </mxCell>
        <mxCell id="Tip-lkdg16izol2r0epo-3" value="2" style="whiteSpace=wrap;html=1;aspect=fixed;" parent="WIyWlLk6GJQsqaUBKTNV-1" vertex="1">
          <mxGeometry x="200" y="480" width="80" height="80" as="geometry" />
        </mxCell>
        <mxCell id="Tip-lkdg16izol2r0epo-7" value="3" style="whiteSpace=wrap;html=1;aspect=fixed;" parent="WIyWlLk6GJQsqaUBKTNV-1" vertex="1">
          <mxGeometry x="200" y="620" width="80" height="80" as="geometry" />
        </mxCell>
        <mxCell id="Tip-lkdg16izol2r0epo-8" style="edgeStyle=orthogonalEdgeStyle;rounded=0;orthogonalLoop=1;jettySize=auto;html=1;" parent="WIyWlLk6GJQsqaUBKTNV-1" target="Tip-lkdg16izol2r0epo-7" edge="1">
          <mxGeometry relative="1" as="geometry">
            <mxPoint x="240" y="560" as="sourcePoint" />
          </mxGeometry>
        </mxCell>
        <mxCell id="Tip-lkdg16izol2r0epo-16" value="" style="endArrow=none;html=1;rounded=0;" parent="WIyWlLk6GJQsqaUBKTNV-1" edge="1">
          <mxGeometry width="50" height="50" relative="1" as="geometry">
            <mxPoint x="200" y="590" as="sourcePoint" />
            <mxPoint x="280" y="590" as="targetPoint" />
          </mxGeometry>
        </mxCell>
        <mxCell id="zizdQAcy_swnnLg_s33c-1" style="edgeStyle=orthogonalEdgeStyle;rounded=0;orthogonalLoop=1;jettySize=auto;html=1;" parent="WIyWlLk6GJQsqaUBKTNV-1" target="Tip-lkdg16izol2r0epo-3" edge="1">
          <mxGeometry relative="1" as="geometry">
            <mxPoint x="240" y="420" as="sourcePoint" />
            <mxPoint x="240" y="480" as="targetPoint" />
          </mxGeometry>
        </mxCell>
        <mxCell id="zizdQAcy_swnnLg_s33c-2" value="" style="endArrow=none;html=1;rounded=0;" parent="WIyWlLk6GJQsqaUBKTNV-1" edge="1">
          <mxGeometry width="50" height="50" relative="1" as="geometry">
            <mxPoint x="200" y="450" as="sourcePoint" />
            <mxPoint x="280" y="450" as="targetPoint" />
          </mxGeometry>
        </mxCell>
        <mxCell id="DZSAn2H4csBoIOzvJdjt-3" value="" style="endArrow=none;html=1;rounded=0;" parent="WIyWlLk6GJQsqaUBKTNV-1" edge="1">
          <mxGeometry width="50" height="50" relative="1" as="geometry">
            <mxPoint x="200" y="730" as="sourcePoint" />
            <mxPoint x="280" y="730" as="targetPoint" />
          </mxGeometry>
        </mxCell>
        <mxCell id="DZSAn2H4csBoIOzvJdjt-5" value="4" style="whiteSpace=wrap;html=1;aspect=fixed;" parent="WIyWlLk6GJQsqaUBKTNV-1" vertex="1">
          <mxGeometry x="200" y="760" width="80" height="80" as="geometry" />
        </mxCell>
        <mxCell id="DZSAn2H4csBoIOzvJdjt-8" style="edgeStyle=orthogonalEdgeStyle;rounded=0;orthogonalLoop=1;jettySize=auto;html=1;" parent="WIyWlLk6GJQsqaUBKTNV-1" target="DZSAn2H4csBoIOzvJdjt-5" edge="1">
          <mxGeometry relative="1" as="geometry">
            <mxPoint x="239.38" y="700" as="sourcePoint" />
            <mxPoint x="239.38" y="760" as="targetPoint" />
          </mxGeometry>
        </mxCell>
        <mxCell id="DZSAn2H4csBoIOzvJdjt-11" value="S4" style="text;html=1;align=center;verticalAlign=middle;whiteSpace=wrap;rounded=0;" parent="WIyWlLk6GJQsqaUBKTNV-1" vertex="1">
          <mxGeometry x="290" y="430" width="60" height="30" as="geometry" />
        </mxCell>
        <mxCell id="DZSAn2H4csBoIOzvJdjt-12" value="" style="endArrow=none;html=1;rounded=0;" parent="WIyWlLk6GJQsqaUBKTNV-1" edge="1">
          <mxGeometry width="50" height="50" relative="1" as="geometry">
            <mxPoint x="280" y="520" as="sourcePoint" />
            <mxPoint x="360" y="519" as="targetPoint" />
          </mxGeometry>
        </mxCell>
        <mxCell id="DZSAn2H4csBoIOzvJdjt-14" value="Spind" style="rounded=0;whiteSpace=wrap;html=1;" parent="WIyWlLk6GJQsqaUBKTNV-1" vertex="1">
          <mxGeometry x="360" y="480" width="120" height="80" as="geometry" />
        </mxCell>
        <mxCell id="DZSAn2H4csBoIOzvJdjt-15" value="FW_M" style="rounded=0;whiteSpace=wrap;html=1;" parent="WIyWlLk6GJQsqaUBKTNV-1" vertex="1">
          <mxGeometry x="480" y="480" width="120" height="80" as="geometry" />
        </mxCell>
        <mxCell id="DZSAn2H4csBoIOzvJdjt-16" value="S2" style="text;html=1;align=center;verticalAlign=middle;whiteSpace=wrap;rounded=0;" parent="WIyWlLk6GJQsqaUBKTNV-1" vertex="1">
          <mxGeometry x="290" y="580" width="60" height="30" as="geometry" />
        </mxCell>
        <mxCell id="DZSAn2H4csBoIOzvJdjt-17" style="edgeStyle=orthogonalEdgeStyle;rounded=0;orthogonalLoop=1;jettySize=auto;html=1;exitX=0;exitY=0;exitDx=0;exitDy=0;" parent="WIyWlLk6GJQsqaUBKTNV-1" source="DZSAn2H4csBoIOzvJdjt-14" edge="1">
          <mxGeometry relative="1" as="geometry">
            <mxPoint x="250" y="570" as="sourcePoint" />
            <mxPoint x="360" y="450" as="targetPoint" />
          </mxGeometry>
        </mxCell>
        <mxCell id="DZSAn2H4csBoIOzvJdjt-19" value="" style="endArrow=none;html=1;rounded=0;" parent="WIyWlLk6GJQsqaUBKTNV-1" edge="1">
          <mxGeometry width="50" height="50" relative="1" as="geometry">
            <mxPoint x="280" y="660" as="sourcePoint" />
            <mxPoint x="360" y="659" as="targetPoint" />
          </mxGeometry>
        </mxCell>
        <mxCell id="DZSAn2H4csBoIOzvJdjt-20" value="P1" style="rounded=0;whiteSpace=wrap;html=1;" parent="WIyWlLk6GJQsqaUBKTNV-1" vertex="1">
          <mxGeometry x="360" y="620" width="120" height="80" as="geometry" />
        </mxCell>
        <mxCell id="DZSAn2H4csBoIOzvJdjt-21" value="S3" style="text;html=1;align=center;verticalAlign=middle;whiteSpace=wrap;rounded=0;" parent="WIyWlLk6GJQsqaUBKTNV-1" vertex="1">
          <mxGeometry x="290" y="720" width="60" height="30" as="geometry" />
        </mxCell>
        <mxCell id="DZSAn2H4csBoIOzvJdjt-22" value="" style="endArrow=none;html=1;rounded=0;" parent="WIyWlLk6GJQsqaUBKTNV-1" edge="1">
          <mxGeometry width="50" height="50" relative="1" as="geometry">
            <mxPoint x="280" y="800" as="sourcePoint" />
            <mxPoint x="360" y="799" as="targetPoint" />
          </mxGeometry>
        </mxCell>
        <mxCell id="DZSAn2H4csBoIOzvJdjt-23" value="RV_M" style="rounded=0;whiteSpace=wrap;html=1;" parent="WIyWlLk6GJQsqaUBKTNV-1" vertex="1">
          <mxGeometry x="360" y="760" width="120" height="80" as="geometry" />
        </mxCell>
        <mxCell id="DZSAn2H4csBoIOzvJdjt-29" value="" style="endArrow=none;html=1;rounded=0;" parent="WIyWlLk6GJQsqaUBKTNV-1" edge="1">
          <mxGeometry width="50" height="50" relative="1" as="geometry">
            <mxPoint x="200" y="870" as="sourcePoint" />
            <mxPoint x="280" y="870" as="targetPoint" />
          </mxGeometry>
        </mxCell>
        <mxCell id="DZSAn2H4csBoIOzvJdjt-45" style="edgeStyle=orthogonalEdgeStyle;rounded=0;orthogonalLoop=1;jettySize=auto;html=1;entryX=0;entryY=0.5;entryDx=0;entryDy=0;" parent="WIyWlLk6GJQsqaUBKTNV-1" source="DZSAn2H4csBoIOzvJdjt-30" target="Tip-lkdg16izol2r0epo-0" edge="1">
          <mxGeometry relative="1" as="geometry">
            <Array as="points">
              <mxPoint x="140" y="1080" />
              <mxPoint x="140" y="380" />
            </Array>
          </mxGeometry>
        </mxCell>
        <mxCell id="DZSAn2H4csBoIOzvJdjt-30" value="5" style="whiteSpace=wrap;html=1;aspect=fixed;" parent="WIyWlLk6GJQsqaUBKTNV-1" vertex="1">
          <mxGeometry x="200" y="900" width="80" height="80" as="geometry" />
        </mxCell>
        <mxCell id="DZSAn2H4csBoIOzvJdjt-31" style="edgeStyle=orthogonalEdgeStyle;rounded=0;orthogonalLoop=1;jettySize=auto;html=1;" parent="WIyWlLk6GJQsqaUBKTNV-1" target="DZSAn2H4csBoIOzvJdjt-30" edge="1">
          <mxGeometry relative="1" as="geometry">
            <mxPoint x="239.38" y="840" as="sourcePoint" />
            <mxPoint x="239.38" y="900" as="targetPoint" />
          </mxGeometry>
        </mxCell>
        <mxCell id="DZSAn2H4csBoIOzvJdjt-32" value="" style="endArrow=none;html=1;rounded=0;" parent="WIyWlLk6GJQsqaUBKTNV-1" edge="1">
          <mxGeometry width="50" height="50" relative="1" as="geometry">
            <mxPoint x="280" y="940" as="sourcePoint" />
            <mxPoint x="360" y="939" as="targetPoint" />
          </mxGeometry>
        </mxCell>
        <mxCell id="DZSAn2H4csBoIOzvJdjt-33" value="Spind" style="rounded=0;whiteSpace=wrap;html=1;" parent="WIyWlLk6GJQsqaUBKTNV-1" vertex="1">
          <mxGeometry x="360" y="900" width="120" height="80" as="geometry" />
        </mxCell>
        <mxCell id="DZSAn2H4csBoIOzvJdjt-34" value="S1" style="text;html=1;align=center;verticalAlign=middle;whiteSpace=wrap;rounded=0;" parent="WIyWlLk6GJQsqaUBKTNV-1" vertex="1">
          <mxGeometry x="290" y="860" width="60" height="30" as="geometry" />
        </mxCell>
        <mxCell id="DZSAn2H4csBoIOzvJdjt-41" style="edgeStyle=orthogonalEdgeStyle;rounded=0;orthogonalLoop=1;jettySize=auto;html=1;exitX=0;exitY=0;exitDx=0;exitDy=0;" parent="WIyWlLk6GJQsqaUBKTNV-1" edge="1">
          <mxGeometry relative="1" as="geometry">
            <mxPoint x="360" y="900" as="sourcePoint" />
            <mxPoint x="360" y="870" as="targetPoint" />
          </mxGeometry>
        </mxCell>
        <mxCell id="DZSAn2H4csBoIOzvJdjt-42" value="P1" style="rounded=0;whiteSpace=wrap;html=1;" parent="WIyWlLk6GJQsqaUBKTNV-1" vertex="1">
          <mxGeometry x="480" y="900" width="120" height="80" as="geometry" />
        </mxCell>
        <mxCell id="DZSAn2H4csBoIOzvJdjt-43" style="edgeStyle=orthogonalEdgeStyle;rounded=0;orthogonalLoop=1;jettySize=auto;html=1;exitX=0;exitY=0;exitDx=0;exitDy=0;" parent="WIyWlLk6GJQsqaUBKTNV-1" edge="1">
          <mxGeometry relative="1" as="geometry">
            <mxPoint x="480" y="900" as="sourcePoint" />
            <mxPoint x="480" y="870" as="targetPoint" />
          </mxGeometry>
        </mxCell>
        <mxCell id="DZSAn2H4csBoIOzvJdjt-44" style="edgeStyle=orthogonalEdgeStyle;rounded=0;orthogonalLoop=1;jettySize=auto;html=1;exitX=0;exitY=0;exitDx=0;exitDy=0;" parent="WIyWlLk6GJQsqaUBKTNV-1" edge="1">
          <mxGeometry relative="1" as="geometry">
            <mxPoint x="360" y="620" as="sourcePoint" />
            <mxPoint x="360" y="590" as="targetPoint" />
          </mxGeometry>
        </mxCell>
        <mxCell id="DZSAn2H4csBoIOzvJdjt-47" value="Drill" style="rounded=0;whiteSpace=wrap;html=1;" parent="WIyWlLk6GJQsqaUBKTNV-1" vertex="1">
          <mxGeometry x="480" y="620" width="120" height="80" as="geometry" />
        </mxCell>
      </root>
    </mxGraphModel>
  </diagram>
</mxfile>
